<svg width="25" height="25" fill="none" xmlns="http://www.w3.org/2000/svg"><g clip-path="url(#clip0_6441_3114)"><circle cx="12" cy="12.6" r="12" fill="#BFD7EA"/><path d="M6.393 18.332c6.263-.065 11.224-5.074 11.092-11.18a.584.584 0 00-.466-.553l-2.552-.546a.596.596 0 00-.396.052.568.568 0 00-.268.288L12.69 9.075a.559.559 0 00-.023.362.58.58 0 00.205.304l1.505 1.168a8.81 8.81 0 01-4.237 4.27l-1.242-1.433a.597.597 0 00-.688-.156L5.5 14.762a.558.558 0 00-.326.658l.64 2.474a.58.58 0 00.212.317.6.6 0 00.368.12z" fill="#C81D25"/></g><defs><clipPath id="clip0_6441_3114"><path fill="#fff" transform="translate(0 .6)" d="M0 0h24.431v24.4H0z"/></clipPath></defs></svg>