<svg width="194" height="5" xmlns="http://www.w3.org/2000/svg"><path d="M1 2.5c3.429-2 10.286-2 13.715 0 3.427 2 10.285 2 13.714 0 3.428-2 10.286-2 13.715 0 3.427 2 10.284 2 13.713 0 3.429-2 10.286-2 13.715 0 3.427 2 10.285 2 13.714 0C86.714.5 93.572.5 97 2.5c3.427 2 10.285 2 13.713 0 3.429-2 10.287-2 13.715 0 3.43 2 10.285 2 13.714 0 3.429-2 10.286-2 13.715 0 3.429 2 10.285 2 13.713 0 3.43-2 10.287-2 13.715 0 3.43 2 10.285 2 13.714 0" stroke="#FF5A5F" stroke-width="2" fill="none" stroke-linecap="round"/></svg>