<svg width="25" height="25" viewBox="0 0 25 25" fill="none" xmlns="http://www.w3.org/2000/svg">
<g id="Frame 1120">
<circle id="Ellipse 1088" cx="12" cy="12" r="12" fill="#BFD7EA"/>
<g id="Group 40">
<path id="Subtract" fill-rule="evenodd" clip-rule="evenodd" d="M17.7273 7.5C17.8202 7.5 17.9107 7.50995 17.998 7.52885L12.3632 13.1637C12.1123 13.4146 11.7055 13.4146 11.4545 13.1637L5.85947 7.56859C5.98905 7.52413 6.12807 7.5 6.27273 7.5H17.7273ZM14.7594 12.1424L18.8055 8.09624C18.9287 8.29221 19 8.52415 19 8.77273V16.2273C19 16.2776 18.9971 16.3272 18.9914 16.376C18.9776 16.3612 18.9635 16.3465 18.9491 16.3321L14.7913 12.1743L14.7594 12.1424ZM9.08482 12.1689L5.12923 8.21328C5.04647 8.38213 5 8.572 5 8.77273V16.2273C5 16.236 5.00009 16.2447 5.00026 16.2534L9.05298 12.2007L9.08482 12.1689ZM18.4238 17.2926C18.2237 17.4238 17.9844 17.5 17.7273 17.5H6.27273C5.97012 17.5 5.69218 17.3944 5.47375 17.218C5.50498 17.146 5.55002 17.0786 5.60887 17.0198L9.74044 12.8882L10.7072 13.8549C11.3709 14.5186 12.4469 14.5186 13.1106 13.8549L14.1038 12.8618L18.2616 17.0196C18.3405 17.0984 18.3946 17.1927 18.4238 17.2926Z" fill="#C81D25"/>
</g>
</g>
</svg>
