<svg width="25" height="25" viewBox="0 0 25 25" fill="none" xmlns="http://www.w3.org/2000/svg">
<g clip-path="url(#clip0_6441_3114)">
<circle cx="12" cy="12.5999" r="12" fill="#BFD7EA"/>
<path d="M6.39298 18.3316C12.6559 18.2672 17.6167 13.258 17.4849 7.15237C17.4791 6.8841 17.2838 6.65623 17.0186 6.59948L14.4665 6.05347C14.332 6.02468 14.1918 6.04285 14.0706 6.10483C13.9493 6.1668 13.8547 6.26863 13.8033 6.39251L12.6888 9.0748C12.6412 9.18938 12.6332 9.31636 12.666 9.43659C12.6988 9.55682 12.7707 9.66378 12.8708 9.74135L14.3765 10.9086C13.5196 12.7849 11.9933 14.3022 10.1394 15.1791L8.89707 13.7463C8.81451 13.6511 8.70275 13.5843 8.57865 13.5561C8.45455 13.5278 8.32484 13.5397 8.20906 13.5897L5.49881 14.7623C5.37364 14.8165 5.27241 14.912 5.21281 15.0323C5.15321 15.1526 5.13903 15.29 5.17275 15.4204L5.8123 17.8939C5.84484 18.0197 5.91996 18.1315 6.02542 18.211C6.13088 18.2905 6.26045 18.333 6.39298 18.3316Z" fill="#C81D25"/>
</g>
<defs>
<clipPath id="clip0_6441_3114">
<rect width="24.4311" height="24.4001" fill="white" transform="translate(0 0.599854)"/>
</clipPath>
</defs>
</svg>
