<?xml version="1.0" encoding="UTF-8"?>
<svg width="194px" height="5px" viewBox="0 0 194 5" version="1.1" xmlns="http://www.w3.org/2000/svg" xmlns:xlink="http://www.w3.org/1999/xlink">
    <!-- Generator: sketchtool 58 (101010) - https://sketch.com -->
    <title>D9D07EF0-7244-450A-A6FF-5CACD9BF6E7B@3x</title>
    <desc>Created with sketchtool.</desc>
    <g id="aHUS-Source-HCP" stroke="none" stroke-width="1" fill="none" fill-rule="evenodd" stroke-linecap="round">
        <g id="0.0_Homepage_1344" transform="translate(-239.000000, -699.000000)" stroke="#FF5A5F" stroke-width="2">
            <g id="==-BODY" transform="translate(0.000000, 625.000000)">
                <g id="Triggers">
                    <path d="M240,76.500341 C243.428758,74.4998863 250.286273,74.4998863 253.71503,76.500341 C257.142299,78.4998863 263.999814,78.4998863 267.428571,76.500341 C270.857329,74.4998863 277.714844,74.4998863 281.143602,76.500341 C284.57087,78.4998863 291.428385,78.4998863 294.857143,76.500341 C298.2859,74.4998863 305.143416,74.4998863 308.572173,76.500341 C311.999441,78.4998863 318.856957,78.4998863 322.285714,76.500341 C325.714472,74.4998863 332.571987,74.4998863 336.000745,76.500341 C339.428013,78.4998863 346.285528,78.4998863 349.714286,76.500341 C353.143043,74.4998863 360.000559,74.4998863 363.429316,76.500341 C366.858074,78.4998863 373.7141,78.4998863 377.142857,76.500341 C380.571615,74.4998863 387.42913,74.4998863 390.857888,76.500341 C394.286645,78.4998863 401.142671,78.4998863 404.571429,76.500341 C408.000186,74.4998863 414.857701,74.4998863 418.286459,76.500341 C421.715217,78.4998863 428.571242,78.4998863 432,76.500341" id="Squiggle-red"></path>
                </g>
            </g>
        </g>
    </g>
</svg>